<?xml version="1.0" standalone="no"?>
<!DOCTYPE svg PUBLIC "-//W3C//DTD SVG 20010904//EN"
 "http://www.w3.org/TR/2001/REC-SVG-20010904/DTD/svg10.dtd">
<svg version="1.0" xmlns="http://www.w3.org/2000/svg"
 width="651.000000pt" height="395.000000pt" viewBox="0 0 651.000000 395.000000"
 preserveAspectRatio="xMidYMid meet">

<g transform="translate(0.000000,395.000000) scale(0.100000,-0.100000)"
fill="#000000" stroke="none">
<path d="M1044 1776 c-76 -33 -99 -125 -47 -187 15 -18 55 -45 89 -60 72 -33
94 -52 94 -83 0 -43 -55 -69 -104 -50 -18 7 -21 45 -6 60 16 16 1 43 -26 50
-31 8 -72 -18 -80 -51 -9 -36 14 -83 50 -103 43 -23 150 -22 194 1 48 26 74
73 68 121 -7 57 -33 85 -127 136 -76 41 -84 48 -84 75 0 23 6 32 26 39 57 20
104 -18 62 -49 -15 -11 -15 -15 -4 -29 31 -38 111 -4 111 47 0 75 -124 123
-216 83z"/>
<path d="M1451 1766 c-16 -19 -7 -34 25 -46 l25 -10 -3 -152 c-3 -148 -4 -153
-25 -156 -26 -4 -38 -29 -22 -49 9 -10 34 -13 103 -11 90 3 91 3 91 28 0 18
-6 26 -22 28 -23 3 -23 5 -23 162 0 157 0 159 23 162 16 2 22 10 22 28 0 25
-1 25 -91 28 -71 2 -94 -1 -103 -12z"/>
<path d="M1917 1768 c-6 -19 11 -48 28 -48 22 0 19 -13 -48 -170 -40 -92 -68
-146 -79 -148 -9 -2 -28 8 -42 22 -29 30 -43 32 -74 10 -24 -16 -28 -44 -12
-75 12 -21 68 -27 87 -8 8 8 13 8 17 0 11 -17 151 -14 165 3 17 20 3 46 -25
46 -26 0 -31 18 -14 51 9 16 22 19 79 19 68 0 69 0 80 -31 14 -40 15 -37 -11
-41 -17 -2 -23 -10 -23 -28 0 -24 2 -25 75 -28 41 -2 85 0 97 3 31 7 29 41 -3
57 -21 10 -39 44 -90 173 -74 182 -92 205 -159 205 -26 0 -45 -5 -48 -12z
m106 -195 l17 -43 -40 0 c-22 0 -40 3 -40 7 0 20 34 93 40 86 4 -4 14 -27 23
-50z"/>
<path d="M1332 1434 c-24 -17 -30 -62 -10 -82 17 -17 64 -15 82 4 22 21 20 50
-4 74 -24 24 -38 25 -68 4z"/>
</g>
</svg>
